<?xml version="1.0" encoding="utf-8"?>
<!-- Generator: Adobe Illustrator 16.0.0, SVG Export Plug-In . SVG Version: 6.00 Build 0)  -->
<!DOCTYPE svg PUBLIC "-//W3C//DTD SVG 1.1//EN" "http://www.w3.org/Graphics/SVG/1.1/DTD/svg11.dtd">
<svg version="1.1" id="Layer_1" xmlns="http://www.w3.org/2000/svg" xmlns:xlink="http://www.w3.org/1999/xlink" x="0px" y="0px"
	 width="696.746px" height="668.459px" viewBox="0 0 696.746 668.459" enable-background="new 0 0 696.746 668.459"
	 xml:space="preserve">
<g>
	<g>
		
			<path fill="none" stroke="#000000" stroke-width="108.8654" stroke-linecap="round" stroke-linejoin="round" stroke-miterlimit="10" d="
			M280.35,339.055c0,0-5.134-110.913,2.173-171.83c5.468-45.587,97.482-114.5,177.256-108.087
			c90.234,7.255,137.407,40.061,137.407,40.061"/>
		
			<path fill="none" stroke="#00FF00" stroke-width="93.6243" stroke-linecap="round" stroke-linejoin="round" stroke-miterlimit="10" d="
			M280.35,339.055c0,0-5.134-110.913,2.173-171.83c5.468-45.587,97.482-114.5,177.256-108.087
			c90.234,7.255,137.407,40.061,137.407,40.061"/>
	</g>
	
		<line fill="none" stroke="#000000" stroke-width="33.2342" stroke-miterlimit="10" x1="675.556" y1="116.737" x2="469.967" y2="203.78"/>
	<g>
		
			<path fill="none" stroke="#000000" stroke-width="110.7808" stroke-linecap="round" stroke-linejoin="round" stroke-miterlimit="10" d="
			M103.563,571.545c0,0,38.795,33.347,130.813,41.079c81.351,6.835,175.183-66.622,180.759-115.21
			c7.59-66.158,8.57-33.643,3.323-254.798"/>
		
			<path fill="none" stroke="#00FF00" stroke-width="95.2715" stroke-linecap="round" stroke-linejoin="round" stroke-miterlimit="10" d="
			M103.563,571.545c0,0,38.795,33.347,130.813,41.079c81.351,6.835,175.183-66.622,180.759-115.21
			c7.59-66.158,8.57-33.643,3.323-254.798"/>
	</g>
	<g>
		
			<path fill="none" stroke="#000000" stroke-width="108.8654" stroke-linecap="round" stroke-linejoin="round" stroke-miterlimit="10" d="
			M283.306,266.988c0,0-3.321,53.175-0.783,120.151c1.737,45.877,97.482,114.496,177.256,108.085
			c90.234-7.255,128.276-38.539,128.276-38.539"/>
		
			<path fill="none" stroke="#00FF00" stroke-width="93.6243" stroke-linecap="round" stroke-linejoin="round" stroke-miterlimit="10" d="
			M283.306,266.988c0,0-3.321,53.175-0.783,120.151c1.737,45.877,97.482,114.496,177.256,108.085
			c90.234-7.255,128.276-38.539,128.276-38.539"/>
	</g>
	
		<line fill="none" stroke="#000000" stroke-width="33.2342" stroke-linecap="round" stroke-linejoin="round" stroke-miterlimit="10" x1="21.861" y1="173.798" x2="343.023" y2="42.484"/>
	<g>
		
			<line fill="none" stroke="#000000" stroke-width="110.7808" stroke-linecap="round" stroke-linejoin="round" stroke-miterlimit="10" x1="394.086" y1="249.263" x2="152.584" y2="235.97"/>
		
			<line fill="none" stroke="#00FF00" stroke-width="95.2715" stroke-linecap="round" stroke-linejoin="round" stroke-miterlimit="10" x1="394.086" y1="249.263" x2="152.584" y2="235.97"/>
	</g>
	<path fill="none" stroke="#000000" stroke-width="33" stroke-linecap="round" stroke-linejoin="round" stroke-miterlimit="10" d="
		M16.5,180.855l442.746,22.925v262.921c0,5.383,0-5.53,0,0c0,88.674-91.242,183.991-215.082,183.991
		c-121.094,0-217.018-63.652-221.321-147.652h-0.602L16.5,180.855z"/>
	<g>
		<g>
			<path fill="#00FF00" d="M404.057,292.827c-0.068,2.113,0.224,4.181,0.397,6.282c0.188,2.279-0.733,2.473-2.922,2.002
				c-3.964-0.852-9.606-3.568-11.962-7.008c-2.404-3.513-8.167-0.193-5.738,3.354c3.893,5.688,12.267,10.138,19.117,10.508
				c3.173,0.172,7.009-1.757,7.809-5.036c0.817-3.354-0.164-6.711-0.055-10.103C410.842,288.539,404.195,288.552,404.057,292.827
				L404.057,292.827z"/>
		</g>
	</g>
	<g>
		<g>
			<path fill="#00FF00" d="M381.9,307.966c-0.207-2.193-0.908-3.776-2.205-5.535c-1.567-2.125-0.674-5.647-0.129-7.983
				c0.972-4.17-5.438-5.94-6.41-1.767c-0.721,3.097-1.241,6.359-0.596,9.521c0.228,1.116,0.51,2.037,1.037,3.047
				c0.465,0.891,1.557,1.665,1.656,2.716C375.653,312.195,382.304,312.234,381.9,307.966L381.9,307.966z"/>
		</g>
	</g>
	<g>
		<g>
			<path fill="#00FF00" d="M373.038,292.457c0,4.062,0,8.124,0,12.186c0,4.286,6.646,4.286,6.646,0c0-4.062,0-8.124,0-12.186
				C379.685,288.171,373.038,288.171,373.038,292.457L373.038,292.457z"/>
		</g>
	</g>
	<g>
		<g>
			<path fill="#00FF00" d="M371.192,293.935c-0.252,4.743,1.14,9.191,1.964,13.807c0.754,4.215,7.158,2.423,6.41-1.767
				c-0.724-4.047-1.947-7.885-1.728-12.041C378.066,289.649,371.418,289.671,371.192,293.935L371.192,293.935z"/>
		</g>
	</g>
	<g>
		<g>
			<path fill="#00FF00" d="M387.355,309.243c-2.059-4.076-3.166-8.56-3.609-13.092c-1.402,1.068-2.805,2.137-4.207,3.205
				c6.963,2.228,11.738,7.451,19.53,7.169c6.854-0.248,13.427-4.38,18.415-8.764c3.227-2.835-1.494-7.517-4.699-4.7
				c-4.545,3.994-10.843,7.727-17.125,6.635c-5.122-0.89-9.38-5.158-14.354-6.75c-1.924-0.616-4.415,1.081-4.207,3.205
				c0.563,5.758,1.899,11.267,4.518,16.447C383.55,316.424,389.284,313.058,387.355,309.243L387.355,309.243z"/>
		</g>
	</g>
	<g>
		<g>
			<path fill="#00FF00" d="M440.614,287.288c0-13.171,0-26.342,0-39.514c0-4.286-6.646-4.286-6.646,0c0,13.171,0,26.342,0,39.514
				C433.968,291.574,440.614,291.574,440.614,287.288L440.614,287.288z"/>
		</g>
	</g>
	<g>
		<g>
			<path fill="#00FF00" d="M433.968,245.191c0,16.125,0,32.249,0,48.373c0,4.286,6.646,4.286,6.646,0c0-16.125,0-32.249,0-48.373
				C440.614,240.905,433.968,240.905,433.968,245.191L433.968,245.191z"/>
		</g>
	</g>
	<g>
		<g>
			<path fill="#00FF00" d="M442.83,294.673c0-23.879,0-47.758,0-71.638c0-4.286-6.646-4.286-6.646,0c0,23.879,0,47.758,0,71.638
				C436.184,298.959,442.83,298.959,442.83,294.673L442.83,294.673z"/>
		</g>
	</g>
	<g>
		<g>
			<path fill="#00FF00" d="M435.445,231.157c4.286,0,4.286-6.646,0-6.646S431.159,231.157,435.445,231.157L435.445,231.157z"/>
		</g>
	</g>
	<g>
		<g>
			<path fill="#00FF00" d="M434.705,228.941c4.286,0,4.286-6.646,0-6.646S430.419,228.941,434.705,228.941L434.705,228.941z"/>
		</g>
	</g>
	<g>
		<g>
			<path fill="#00FF00" d="M434.705,228.941c4.286,0,4.286-6.646,0-6.646S430.419,228.941,434.705,228.941L434.705,228.941z"/>
		</g>
	</g>
	<g>
		<g>
			<path fill="#00FF00" d="M434.705,227.096c4.286,0,4.286-6.646,0-6.646S430.419,227.096,434.705,227.096L434.705,227.096z"/>
		</g>
	</g>
	<g>
		<g>
			<path fill="#00FF00" d="M432.636,225.87c1.597-0.227,3.307,0.108,4.879,0.37c1.786,0.297,3.571-0.44,4.089-2.321
				c0.441-1.607-0.532-3.791-2.321-4.088c-2.862-0.476-5.528-0.78-8.414-0.37c-1.797,0.255-2.755,2.512-2.321,4.088
				C429.073,225.46,430.844,226.124,432.636,225.87L432.636,225.87z"/>
		</g>
	</g>
	<g>
		<g>
			<path fill="#00FF00" d="M416.599,271.844c2.39,6.81,3.61,13.773,3.704,20.983c6.528-0.883,13.057-1.767,19.585-2.65
				c-1.14-6.497-3.965-11.785-9.259-15.762c-5.998-4.504-14.897-0.989-19.035,4.204c-1.896,2.38-3.426,4.899-4.988,7.5
				c-0.876,1.459-0.832,1.172-0.168,0.704c0.265-0.186-1.979,0.107-2.388,0.106c-7.562-0.01-14.133-0.157-19.967,5.494
				c-9.251,8.959,4.864,23.045,14.1,14.1c-0.341,0.331-2.047,0.236,0.659,0.166c2.167-0.056,4.345,0.18,6.514,0.183
				c4.964,0.006,10.654-1.522,14.243-5.149c2.89-2.919,4.752-6.569,6.938-9.996c-0.411,0.266-0.19,0.021,0.663-0.735
				c-2.212,0.214-4.424,0.428-6.636,0.642c-1.601-1.773-1.908-1.91-0.925-0.412c0.246,0.43,0.806,3.033,1.02,4.256
				c1.975,11.263,19.729,8.371,19.585-2.65c-0.116-8.864-1.479-17.907-4.417-26.284c-1.798-5.124-6.752-8.48-12.265-6.964
				C418.596,260.945,414.799,266.712,416.599,271.844L416.599,271.844z"/>
		</g>
	</g>
	<g>
		<g>
			<path fill="#00FF00" d="M430.875,226.969c4.286,0,4.286-6.646,0-6.646S426.589,226.969,430.875,226.969L430.875,226.969z"/>
		</g>
	</g>
	
		<line fill="none" stroke="#00FF00" stroke-width="2.2156" stroke-miterlimit="10" x1="422.796" y1="219.675" x2="441.768" y2="220.599"/>
	<path fill="none" stroke="#000000" stroke-width="33" stroke-miterlimit="10" d="M245.476,167.762L245.476,167.762
		C254.256,82.72,344.572,16.5,462.623,16.5s208.623,66.592,217.623,150.785l0,0v209.346c-4,85.042-96.531,154.329-217.627,154.329
		c-123.836,0-218.1-72.074-218.1-160.755C244.52,367.833,245.476,167.762,245.476,167.762z"/>
	<g>
		<g>
			<path fill="#00FF00" d="M219.791,220.09c16.78-0.074,33.826-2.204,50.444,0.99c4.188,0.805,5.974-5.601,1.768-6.409
				c-17.267-3.318-34.78-1.304-52.212-1.227C215.506,213.462,215.504,220.109,219.791,220.09L219.791,220.09z"/>
		</g>
	</g>
	<g>
		<g>
			<path fill="#00FF00" d="M224.592,216.767c15.32,0.119,30.47,2.837,45.79,2.955c4.288,0.033,4.284-6.613,0-6.646
				c-15.32-0.119-30.47-2.837-45.79-2.955C220.304,210.087,220.308,216.733,224.592,216.767L224.592,216.767z"/>
		</g>
	</g>
	<g>
		<g>
			<path fill="#00FF00" d="M203.591,222.35c25.575,1.199,51.149,2.398,76.725,3.597c-0.12-0.005,0.345-14.899,0-14.915
				c-16.845-0.791-33.69-1.579-50.535-2.369c0.12,0.006-0.345,14.899,0,14.915c20.534,0.963,41.068,1.927,61.603,2.889
				c-0.12-0.005,0.345-14.899,0-14.915c-10.575-0.496-21.149-0.991-31.725-1.487c0.12,0.006-0.346,14.899,0,14.915
				c10.575,0.497,21.149,0.991,31.725,1.487c0-4.972,0-9.943,0-14.915c-20.534-0.962-41.068-1.925-61.603-2.889
				c0,4.972,0,9.943,0,14.915c16.845,0.791,33.69,1.578,50.535,2.369c0-4.972,0-9.943,0-14.915
				c-25.575-1.198-51.149-2.398-76.725-3.597C203.711,207.441,203.246,222.334,203.591,222.35L203.591,222.35z"/>
		</g>
	</g>
	<g>
		<g>
			<path fill="#00FF00" d="M222.809,287.699c25.565,1.375,51.13,2.781,76.694,4.169c0-18.007,0-36.015,0-54.022
				c-16.839-0.907-33.678-1.807-50.514-2.761c0,18.007,0,36.015,0,54.022c20.524,1.133,41.049,2.285,61.576,3.373
				c-0.565-0.03,1.389-53.945,0-54.022c-10.569-0.591-21.141-1.135-31.711-1.711c0.57,0.031-1.385,53.947,0,54.022
				c10.57,0.576,21.142,1.121,31.711,1.711c0-18.007,0-36.015,0-54.022c-20.527-1.088-41.052-2.24-61.576-3.373
				c0.594,0.033-1.413,53.942,0,54.022c16.836,0.954,33.675,1.854,50.514,2.761c-0.563-0.03,1.379-53.948,0-54.022
				c-25.564-1.389-51.129-2.794-76.694-4.169C223.366,233.706,221.436,287.625,222.809,287.699L222.809,287.699z"/>
		</g>
	</g>
	<g>
		<g>
			<path fill="#00FF00" d="M200.652,261.111c25.565,1.376,51.13,2.781,76.694,4.17c0-18.007,0-36.015,0-54.022
				c-16.839-0.907-33.678-1.808-50.514-2.761c0,18.007,0,36.015,0,54.022c20.525,1.132,41.05,2.285,61.577,3.373
				c-0.565-0.03,1.39-53.945,0-54.022c-10.569-0.592-21.141-1.135-31.711-1.712c0.571,0.031-1.387,53.947,0,54.022
				c10.57,0.577,21.142,1.121,31.711,1.712c0-18.007,0-36.015,0-54.022c-20.527-1.088-41.052-2.241-61.577-3.373
				c0.593,0.033-1.412,53.942,0,54.022c16.836,0.953,33.675,1.854,50.514,2.761c-0.563-0.03,1.379-53.948,0-54.022
				c-25.564-1.39-51.129-2.794-76.694-4.17C201.211,207.118,199.279,261.037,200.652,261.111L200.652,261.111z"/>
		</g>
	</g>
</g>
</svg>
